<svg width="1200" height="400" viewBox="0 0 1200 400" fill="none" xmlns="http://www.w3.org/2000/svg">
  
  <rect width="1200" height="400" fill="#050505"/>

  <defs>
    <pattern id="bunker-grid" width="40" height="40" patternUnits="userSpaceOnUse">
      <path d="M 40 0 L 0 0 0 40" fill="none" stroke="#111111" stroke-width="1"/>
    </pattern>
  </defs>
  <rect width="1200" height="400" fill="url(#bunker-grid)"/>

  <rect x="0" y="0" width="1200" height="4" fill="#FFBF00"/>

  <rect x="30" y="40" width="4" height="320" fill="#111111"/>
  <rect x="30" y="160" width="4" height="80" fill="#FFBF00"/>

  <text x="80" y="190" fill="#FDFDFD" font-family="'JetBrains Mono', monospace, sans-serif" font-size="52" font-weight="bold" letter-spacing="8">AXIOM SENTINEL</text>
  <text x="85" y="235" fill="#FFBF00" font-family="'JetBrains Mono', monospace, sans-serif" font-size="18" font-weight="bold" letter-spacing="4">ARCHITECTURE OF AUTHORITY // CTI NODE</text>
  
  <text x="85" y="270" fill="#555555" font-family="'JetBrains Mono', monospace, sans-serif" font-size="12" font-weight="normal" letter-spacing="2">SYS.STATE: SECURE • GRID_DEF: 8PT • ENVIRONMENT: HARDENED</text>

  <circle cx="950" cy="200" r="140" stroke="#111111" stroke-width="2"/>
  <circle cx="950" cy="200" r="90" stroke="#FFBF00" stroke-width="1.5" stroke-dasharray="4 6" stroke-opacity="0.6"/>
  <circle cx="950" cy="200" r="45" stroke="#222222" stroke-width="1"/>
  
  <path d="M 790 200 L 1110 200" stroke="#1A1A1A" stroke-width="1"/>
  <path d="M 950 40 L 950 360" stroke="#1A1A1A" stroke-width="1"/>

  <path d="M 950 200 L 1030 140 L 1100 140" stroke="#FDFDFD" stroke-width="1.5" fill="none"/>
  <path d="M 950 200 L 880 270 L 810 270" stroke="#FDFDFD" stroke-width="1.5" fill="none" stroke-opacity="0.5"/>
  
  <circle cx="950" cy="200" r="6" fill="#FFBF00"/>
  <circle cx="1030" cy="140" r="4" fill="#FDFDFD"/>
  <circle cx="880" cy="270" r="4" fill="#888888"/>

  <text x="1110" y="144" fill="#FDFDFD" font-family="'JetBrains Mono', monospace, sans-serif" font-size="12" letter-spacing="1">SYNC_LOCK</text>
  <text x="1110" y="160" fill="#FFBF00" font-family="'JetBrains Mono', monospace, sans-serif" font-size="10" letter-spacing="1">99.999%</text>

  <text x="795" y="265" fill="#555555" font-family="'JetBrains Mono', monospace, sans-serif" font-size="10" text-anchor="end" letter-spacing="1">VANGUARD_OP</text>

</svg>
